<?xml version="1.0" encoding="UTF-8" standalone="no"?>
<!-- Generator: Adobe Illustrator 15.0.2, SVG Export Plug-In . SVG Version: 6.00 Build 0)  -->

<svg
   xmlns:dc="http://purl.org/dc/elements/1.1/"
   xmlns:cc="http://creativecommons.org/ns#"
   xmlns:rdf="http://www.w3.org/1999/02/22-rdf-syntax-ns#"
   xmlns:svg="http://www.w3.org/2000/svg"
   xmlns="http://www.w3.org/2000/svg"
   xmlns:sodipodi="http://sodipodi.sourceforge.net/DTD/sodipodi-0.dtd"
   xmlns:inkscape="http://www.inkscape.org/namespaces/inkscape"
   version="1.1"
   id="Ebene_1"
   x="0px"
   y="0px"
   width="100px"
   height="100px"
   viewBox="0 0 100 100"
   enable-background="new 0 0 100 100"
   xml:space="preserve"
   inkscape:version="0.48.2 r9819"
   sodipodi:docname="government.svg"><metadata
   id="metadata3049"><rdf:RDF><cc:Work
       rdf:about=""><dc:format>image/svg+xml</dc:format><dc:type
         rdf:resource="http://purl.org/dc/dcmitype/StillImage" /><dc:title></dc:title></cc:Work></rdf:RDF></metadata><defs
   id="defs3047" /><sodipodi:namedview
   pagecolor="#ffffff"
   bordercolor="#666666"
   borderopacity="1"
   objecttolerance="10"
   gridtolerance="10"
   guidetolerance="10"
   inkscape:pageopacity="0"
   inkscape:pageshadow="2"
   inkscape:window-width="1280"
   inkscape:window-height="752"
   id="namedview3045"
   showgrid="false"
   inkscape:zoom="2.36"
   inkscape:cx="137.42476"
   inkscape:cy="16.101695"
   inkscape:window-x="0"
   inkscape:window-y="0"
   inkscape:window-maximized="1"
   inkscape:current-layer="Ebene_1" />
<circle
   fill="#B2B2B2"
   cx="50"
   cy="50"
   r="50"
   id="circle3041" />

<path
   style="fill:#000000"
   d="m 15.395833,74.821115 c 0,-0.08407 0.1141,-0.319604 0.253483,-0.523344 0.13941,-0.20374 0.620192,-1.029861 1.068383,-1.835827 0.448192,-0.805953 0.985961,-1.747975 1.19503,-2.093388 0.209083,-0.345414 1.305914,-2.260859 2.437427,-4.256563 1.131524,-1.995703 2.184093,-3.848357 2.339053,-4.117016 0.739983,-1.282857 1.788285,-3.116556 2.413229,-4.22122 0.379819,-0.671386 0.72198,-1.21825 0.760364,-1.21526 0.06531,0.005 3.137399,5.293305 3.400153,5.85298 0.0902,0.192069 -0.06481,0.584698 -0.615587,1.559911 -0.404853,0.716788 -0.909168,1.617249 -1.120702,2.001046 -0.211535,0.383784 -0.641047,1.136416 -0.954458,1.672496 -0.313423,0.536093 -0.569847,1.021716 -0.569847,1.079191 0,0.05742 1.580454,0.121231 3.512126,0.141774 l 3.512126,0.03728 0.790953,1.325819 c 0.435016,0.729198 0.99164,1.686796 1.236941,2.127993 0.245289,0.44121 0.663816,1.163428 0.930036,1.604937 0.266245,0.441523 0.484235,0.849855 0.484423,0.90743 1.5e-4,0.05755 -4.741173,0.104716 -10.536391,0.104716 -7.544569,0 -10.536742,-0.04342 -10.536742,-0.152908 z m 48.479651,-0.06168 c 0.04529,-0.117977 0.491617,-0.908279 0.991853,-1.756143 0.500236,-0.847865 0.909506,-1.55841 0.909506,-1.579003 0,-0.02052 0.337069,-0.59627 0.749053,-1.279291 l 0.749041,-1.241845 3.507522,-0.03728 c 1.929132,-0.02052 3.507522,-0.08432 3.507522,-0.141774 0,-0.05742 -0.256424,-0.543099 -0.569835,-1.079191 -0.313423,-0.53608 -0.743348,-1.288712 -0.955395,-1.672496 -0.212048,-0.383797 -0.709231,-1.278866 -1.104865,-1.989061 -0.395632,-0.710193 -0.71934,-1.323554 -0.71934,-1.363038 0,-0.03941 0.608531,-1.122655 1.352293,-2.407062 0.743774,-1.284421 1.502423,-2.60162 1.68592,-2.927116 0.183486,-0.325497 0.37728,-0.61879 0.430638,-0.651769 0.05342,-0.03303 1.035291,1.583569 2.182066,3.592334 1.146788,2.008777 3.511851,6.148689 5.255709,9.199812 l 3.170665,5.547489 -10.612343,0 c -9.490816,0 -10.603636,-0.02265 -10.53001,-0.214563 z M 49.648437,74.17041 c -0.158614,-0.287213 -0.905853,-1.589837 -1.660536,-2.894713 -0.754683,-1.304888 -1.864276,-3.228579 -2.465776,-4.274866 l -1.093629,-1.902347 0.561878,-0.958623 c 0.309019,-0.527248 1.079792,-1.869244 1.712793,-2.982239 0.633016,-1.112983 1.210018,-2.023615 1.282219,-2.023615 0.07219,0 0.550192,0.722217 1.062189,1.604936 0.511997,0.882721 0.975726,1.604938 1.030512,1.604938 0.0548,0 0.54316,-0.776877 1.085259,-1.726393 0.902975,-1.581605 1.001774,-1.704499 1.178089,-1.465378 0.105843,0.143562 0.912396,1.49992 1.792302,3.014141 l 1.599845,2.753114 -1.559185,2.689709 c -0.85756,1.479341 -2.030533,3.506134 -2.606598,4.503978 -0.576078,0.997846 -1.147314,1.986584 -1.269408,2.197179 -0.122106,0.210597 -0.253396,0.382784 -0.291779,0.382635 -0.03841,-1.39e-4 -0.199562,-0.235256 -0.358175,-0.522456 z m 10.755306,-3.765961 c -1.213509,-2.130582 -2.801393,-4.910007 -3.52864,-6.176512 -0.727235,-1.266504 -1.825179,-3.181963 -2.439866,-4.256575 -0.614673,-1.0746 -1.389337,-2.424841 -1.721464,-3.00053 l -0.603864,-1.046701 5.298309,-0.03653 c 2.91408,-0.02014 7.675645,-0.02014 10.581279,0 l 5.282959,0.03653 -1.367794,2.37252 c -0.752293,1.304888 -1.543871,2.64861 -1.759084,2.986079 l -0.391279,0.613561 -3.441739,-0.02715 c -1.892952,-0.01488 -3.475331,0.02728 -3.516405,0.09371 -0.04104,0.06643 0.161754,0.52477 0.450718,1.018488 0.288965,0.493718 1.07121,1.85722 1.738329,3.030018 l 1.212933,2.132335 -1.072085,1.845109 c -0.589639,1.014811 -1.396943,2.395065 -1.794002,3.067251 l -0.721918,1.222141 -2.206387,-3.873779 z m -23.281195,2.931195 c -0.266882,-0.442148 -0.624544,-1.055121 -0.794806,-1.362151 -0.17026,-0.30703 -0.743898,-1.29553 -1.274762,-2.196665 l -0.965179,-1.638442 1.032375,-1.780779 c 1.922227,-3.31573 2.444771,-4.283486 2.374372,-4.397373 -0.03866,-0.06243 -1.619601,-0.105467 -3.51334,-0.09546 l -3.443166,0.01814 -0.711083,-1.165054 c -0.391103,-0.640783 -1.186735,-1.981478 -1.768067,-2.979323 l -1.056984,-1.814282 5.291953,-0.03654 c 2.910564,-0.02014 7.67472,-0.02014 10.58701,0 l 5.295069,0.03654 -4.189967,7.326878 c -2.304473,4.029791 -4.331854,7.578086 -4.505293,7.885116 -0.921791,1.631848 -1.671733,2.879098 -1.766253,2.937512 -0.05868,0.03628 -0.325008,-0.295846 -0.591879,-0.737993 z m 0.306555,-20.729519 c -0.58511,-1.015123 -1.731235,-2.995914 -2.546959,-4.401728 -0.815724,-1.405825 -1.483131,-2.589358 -1.483131,-2.630093 0,-0.04079 -0.130389,-0.257163 -0.289753,-0.48097 l -0.289753,-0.40693 5.625044,0.03654 5.625057,0.03654 0.854645,1.465379 c 0.470048,0.805952 1.268995,2.17028 1.775437,3.031819 l 0.920777,1.566454 -2.071481,0.03854 -2.071482,0.03854 0.764642,1.325819 c 0.420554,0.729198 0.889889,1.529921 1.042985,1.779388 l 0.278342,0.453571 -3.53527,-0.0038 -3.53526,-0.0038 -1.06384,-1.845698 z m 17.462094,1.772321 c 0,-0.04416 0.439608,-0.837606 0.976915,-1.763188 0.537306,-0.925583 0.976915,-1.705863 0.976915,-1.733963 0,-0.02802 -0.91062,-0.05104 -2.023615,-0.05104 -1.112983,0 -2.023603,-0.0284 -2.023603,-0.06318 0,-0.08482 3.34737,-5.839181 3.475369,-5.974411 0.0553,-0.05843 2.591573,-0.08983 5.636079,-0.06981 l 5.535491,0.03654 -1.691739,2.930757 c -0.930461,1.611906 -2.19828,3.794272 -2.817369,4.849693 l -1.125632,1.918949 -3.459406,0 c -1.902672,0 -3.459405,-0.03616 -3.459405,-0.08032 z m -4.844801,-2.180527 c -0.125721,-0.1567 -0.716374,-1.1604 -1.995716,-3.391321 -0.176065,-0.307031 -0.741309,-1.280454 -1.256095,-2.163175 -0.881732,-1.511918 -5.569333,-9.60813 -6.706675,-11.583441 l -0.522305,-0.907141 3.423836,-0.03741 c 2.272119,-0.02477 3.484126,0.01263 3.60308,0.111347 0.09859,0.08183 0.920741,1.401773 1.827018,2.933234 0.906279,1.531448 1.712619,2.782677 1.791876,2.780501 0.07932,-0.0025 0.925258,-1.321016 1.880003,-2.930745 l 1.735902,-2.926803 3.5407,0 c 1.947399,0 3.513828,0.04704 3.480962,0.104717 -0.541297,0.948327 -2.951588,5.119165 -3.689744,6.384844 -2.422088,4.15306 -3.443866,5.912507 -4.98446,8.582924 -1.860586,3.225063 -1.917072,3.305808 -2.128382,3.042416 z M 39.679203,32.747177 c 0,-0.07932 1.255633,-2.287545 2.930506,-5.153633 0.403703,-0.690827 1.18825,-2.041067 1.743434,-3.000542 0.555197,-0.959462 1.339481,-2.309702 1.74287,-3.00053 0.757286,-1.296881 3.13566,-5.407366 3.735083,-6.455268 0.186813,-0.326572 0.392092,-0.561352 0.456198,-0.521742 0.06405,0.03966 0.537682,0.80923 1.052418,1.710241 0.514724,0.901024 1.359198,2.360446 1.876587,3.243154 0.517389,0.88272 1.64785,2.829581 2.512129,4.326349 1.558259,2.698654 2.463574,4.263257 3.633857,6.280191 0.334029,0.575676 0.811508,1.407803 1.061075,1.849163 l 0.453746,0.802462 -3.531355,0 -3.531343,0 -1.464752,-2.477186 c -0.805616,-1.362451 -1.582055,-2.681877 -1.725431,-2.932082 -0.143387,-0.250194 -0.311997,-0.437807 -0.374689,-0.416901 -0.06268,0.0209 -0.887049,1.32463 -1.83191,2.897189 l -1.717924,2.859206 -3.510249,0.03728 c -1.930634,0.02052 -3.51025,-9.45e-4 -3.51025,-0.04729 z"
   id="path3049"
   inkscape:connector-curvature="0" /></svg>